<svg width="24" height="24" viewBox="0 0 24 24" fill="none" xmlns="http://www.w3.org/2000/svg">
<g clip-path="url(#clip0)">
<path d="M2.78296 21L21.533 3" stroke="currentColor" stroke-width="1.5" stroke-linecap="round" stroke-linejoin="round"/>
<path d="M8.96411 19.051C9.94693 19.3562 10.971 19.5077 12.0001 19.5C16.1001 19.569 20.2581 16.687 22.8241 13.863C23.0992 13.5576 23.2515 13.1611 23.2515 12.75C23.2515 12.3389 23.0992 11.9424 22.8241 11.637C21.8945 10.6172 20.8647 9.69356 19.7501 8.88" stroke="currentColor" stroke-width="1.5" stroke-linecap="round" stroke-linejoin="round"/>
<path d="M14.4131 6.282C13.624 6.08565 12.8131 5.99088 12.0001 6C7.96907 5.933 3.80007 8.752 1.17907 11.635C0.903955 11.9404 0.751709 12.3369 0.751709 12.748C0.751709 13.1591 0.903955 13.5556 1.17907 13.861C1.976 14.7334 2.84581 15.5363 3.77907 16.261" stroke="currentColor" stroke-width="1.5" stroke-linecap="round" stroke-linejoin="round"/>
<path d="M8.25 12.75C8.24987 12.2575 8.34678 11.7698 8.53518 11.3148C8.72359 10.8598 8.99981 10.4463 9.34806 10.0981C9.6963 9.74981 10.1098 9.47359 10.5648 9.28518C11.0198 9.09678 11.5075 8.99987 12 9" stroke="currentColor" stroke-width="1.5" stroke-linecap="round" stroke-linejoin="round"/>
<path d="M15.75 12.749C15.7501 13.2415 15.6532 13.7293 15.4648 14.1844C15.2764 14.6395 15.0002 15.053 14.652 15.4013C14.3038 15.7496 13.8903 16.0259 13.4353 16.2145C12.9803 16.403 12.4925 16.5 12 16.5" stroke="currentColor" stroke-width="1.5" stroke-linecap="round" stroke-linejoin="round"/>
</g>
</svg>
