<svg width="24" height="24" viewBox="0 0 24 24" fill="none" xmlns="http://www.w3.org/2000/svg">
<g clip-path="url(#clip0)">
<path d="M12.0001 6.251C7.96907 6.183 3.80007 9 1.17907 11.885C0.903955 12.1904 0.751709 12.5869 0.751709 12.998C0.751709 13.4091 0.903955 13.8056 1.17907 14.111C3.74307 16.935 7.90007 19.817 12.0001 19.748C16.1001 19.817 20.2581 16.935 22.8241 14.111C23.0992 13.8056 23.2514 13.4091 23.2514 12.998C23.2514 12.5869 23.0992 12.1904 22.8241 11.885C20.2001 9 16.0311 6.183 12.0001 6.251Z" stroke="currentColor" stroke-width="1.5" stroke-linecap="round" stroke-linejoin="round"/>
<path d="M15.75 13C15.7498 13.7416 15.5297 14.4666 15.1175 15.0831C14.7054 15.6997 14.1196 16.1802 13.4344 16.4638C12.7491 16.7475 11.9952 16.8216 11.2678 16.6768C10.5404 16.532 9.87234 16.1748 9.348 15.6503C8.82365 15.1258 8.4666 14.4576 8.32198 13.7302C8.17737 13.0028 8.25169 12.2489 8.53555 11.5637C8.81941 10.8785 9.30005 10.2929 9.91672 9.88092C10.5334 9.46891 11.2584 9.249 12 9.249C12.4926 9.24887 12.9804 9.34581 13.4355 9.53428C13.8905 9.72275 14.304 9.99906 14.6523 10.3474C15.0006 10.6958 15.2768 11.1093 15.4651 11.5645C15.6535 12.0196 15.7503 12.5074 15.75 13Z" stroke="currentColor" stroke-width="1.5" stroke-linecap="round" stroke-linejoin="round"/>
</g>
</svg>
